<svg width="77" height="78" viewBox="0 0 77 78" fill="none" xmlns="http://www.w3.org/2000/svg">
<ellipse cx="40.5" cy="42" rx="36.5" ry="36" fill="black"/>
<circle cx="35" cy="36" r="28" fill="white"/>
<mask id="path-3-inside-1_69_5" fill="white">
<path d="M37 0C16.5698 0 0 16.5698 0 37C0 57.4302 16.5698 74 37 74C57.4302 74 74 57.4302 74 37C74 16.5698 57.4394 0 37 0ZM18.2533 38.2426L18.4106 37.9928L28.0398 22.9338C28.0721 22.8843 28.117 22.8444 28.17 22.8182C28.223 22.792 28.282 22.7805 28.3409 22.7849C28.3998 22.7893 28.4565 22.8095 28.5049 22.8433C28.5534 22.8771 28.5919 22.9232 28.6164 22.977C30.2197 26.5814 31.6134 31.0646 30.9598 33.855C30.6884 35.002 29.9268 36.556 29.0666 37.9928C28.9562 38.203 28.8358 38.4078 28.7058 38.6064C28.6747 38.6507 28.633 38.6866 28.5846 38.7108C28.5362 38.735 28.4825 38.7468 28.4283 38.7452H18.5401C18.4811 38.7461 18.4229 38.731 18.3718 38.7015C18.3206 38.672 18.2784 38.6292 18.2497 38.5777C18.2209 38.5261 18.2066 38.4678 18.2083 38.4088C18.2101 38.3498 18.2278 38.2923 18.2595 38.2426H18.2533ZM61.1548 43.4226C61.1556 43.4884 61.137 43.553 61.1014 43.6084C61.0658 43.6637 61.0146 43.7074 60.9544 43.734C60.2052 44.0516 57.6552 45.2294 56.5946 46.7002C53.8874 50.468 51.8216 55.8577 47.1966 55.8577H27.9134C26.2853 55.8552 24.6736 55.532 23.1705 54.9064C21.6674 54.2809 20.3022 53.3652 19.1531 52.2118C18.004 51.0584 17.0935 49.6899 16.4735 48.1844C15.8536 46.679 15.5364 45.0661 15.54 43.438V43.216C15.54 43.0372 15.688 42.8892 15.873 42.8892H26.6184C26.8343 42.8892 26.9884 43.0834 26.973 43.2962C26.8928 43.993 27.0254 44.7114 27.3584 45.362C27.9936 46.657 29.3194 47.4648 30.747 47.4648H36.0688V43.3116H30.8025C30.7408 43.3109 30.6804 43.2934 30.6279 43.261C30.5754 43.2286 30.5327 43.1825 30.5045 43.1276C30.4763 43.0727 30.4635 43.0112 30.4677 42.9496C30.4719 42.888 30.4927 42.8288 30.5281 42.7782L30.7223 42.5007C31.2157 41.7884 31.9279 40.6938 32.6371 39.442C33.1181 38.5972 33.5868 37.6968 33.9629 36.7903C34.0369 36.63 34.0955 36.4604 34.1633 36.297C34.2651 36.0072 34.3699 35.7358 34.4439 35.4676C34.5165 35.2401 34.5834 35.0109 34.6443 34.78C34.8201 34.0092 34.8941 33.1952 34.8941 32.3534C34.8941 32.0204 34.8818 31.672 34.8509 31.3452C34.8355 30.9844 34.7892 30.6206 34.7461 30.2598C34.7116 29.9371 34.6622 29.616 34.5981 29.2978C34.5151 28.8133 34.4143 28.332 34.2959 27.8548L34.2528 27.6698C34.1603 27.3368 34.0801 27.0223 33.9753 26.6924C33.6817 25.6793 33.3442 24.6793 32.9639 23.6954C32.8314 23.3253 32.6854 22.9602 32.5261 22.6008C32.3041 22.052 32.0759 21.5556 31.8693 21.09C31.7665 20.8905 31.6699 20.688 31.5795 20.4826C31.4792 20.261 31.3733 20.042 31.2619 19.8258C31.1879 19.6624 31.0985 19.5052 31.0399 19.3572L30.3893 18.1608C30.2999 17.9974 30.4479 17.797 30.6267 17.8494L34.6968 18.9502H34.7276L35.261 19.1043L35.853 19.2708L36.0688 19.3294V16.9152C36.0688 15.7466 37 14.8 38.1624 14.8C38.4369 14.7993 38.7087 14.8541 38.9614 14.9611C39.2142 15.0681 39.4427 15.2252 39.6332 15.4228C40.0268 15.8199 40.2484 16.356 40.2498 16.9152V20.5042L40.6846 20.6244C40.7154 20.6398 40.7524 20.6552 40.7802 20.6768C40.885 20.7508 41.0392 20.868 41.2334 21.016C41.3876 21.1332 41.551 21.2812 41.7422 21.4384C42.351 21.9345 42.9414 22.4528 43.512 22.9924C44.1718 23.606 44.9118 24.3244 45.621 25.123C45.8214 25.3512 46.0126 25.5732 46.213 25.8198C46.4042 26.0634 46.62 26.3008 46.7988 26.5352C47.0424 26.8558 47.2922 27.1888 47.5234 27.5342C47.6252 27.6976 47.7516 27.8672 47.8472 28.0306C48.1432 28.4684 48.396 28.9186 48.6396 29.3718C48.7444 29.5784 48.8462 29.8066 48.9356 30.0286C49.21 30.636 49.4258 31.2496 49.5584 31.8724C49.6023 32.0046 49.6322 32.141 49.6478 32.2794V32.3102C49.691 32.486 49.7064 32.6802 49.7218 32.8776C49.8086 33.7889 49.6972 34.7083 49.395 35.5724C49.2994 35.8314 49.21 36.0966 49.0928 36.3556C48.8616 36.8797 48.5964 37.4132 48.2788 37.9034C48.174 38.0884 48.0476 38.2796 47.9304 38.4646C47.7978 38.6588 47.656 38.8438 47.5388 39.0196C47.3693 39.2531 47.1914 39.4804 47.0054 39.701C46.842 39.923 46.6786 40.145 46.4936 40.3454C46.2438 40.6476 46.0002 40.9312 45.7382 41.2026C45.5902 41.3814 45.4298 41.5664 45.2572 41.7267C45.0968 41.9118 44.9242 42.0752 44.7762 42.2232C44.5172 42.4822 44.3137 42.6764 44.1348 42.846L43.7124 43.2222C43.6536 43.2812 43.5737 43.3145 43.4904 43.3147H40.2498V47.4648H44.326C45.2356 47.4648 46.102 47.1442 46.805 46.546C47.0424 46.3394 48.0846 45.436 49.321 44.0732C49.3613 44.0268 49.4153 43.9944 49.4752 43.9807L60.7293 40.7216C60.7787 40.7073 60.8308 40.7046 60.8814 40.7138C60.932 40.723 60.9798 40.7438 61.021 40.7746C61.0622 40.8054 61.0958 40.8453 61.119 40.8912C61.1422 40.9371 61.1545 40.9877 61.1548 41.0392V43.4226Z"/>
</mask>
<path d="M37 0C16.5698 0 0 16.5698 0 37C0 57.4302 16.5698 74 37 74C57.4302 74 74 57.4302 74 37C74 16.5698 57.4394 0 37 0ZM18.2533 38.2426L18.4106 37.9928L28.0398 22.9338C28.0721 22.8843 28.117 22.8444 28.17 22.8182C28.223 22.792 28.282 22.7805 28.3409 22.7849C28.3998 22.7893 28.4565 22.8095 28.5049 22.8433C28.5534 22.8771 28.5919 22.9232 28.6164 22.977C30.2197 26.5814 31.6134 31.0646 30.9598 33.855C30.6884 35.002 29.9268 36.556 29.0666 37.9928C28.9562 38.203 28.8358 38.4078 28.7058 38.6064C28.6747 38.6507 28.633 38.6866 28.5846 38.7108C28.5362 38.735 28.4825 38.7468 28.4283 38.7452H18.5401C18.4811 38.7461 18.4229 38.731 18.3718 38.7015C18.3206 38.672 18.2784 38.6292 18.2497 38.5777C18.2209 38.5261 18.2066 38.4678 18.2083 38.4088C18.2101 38.3498 18.2278 38.2923 18.2595 38.2426H18.2533ZM61.1548 43.4226C61.1556 43.4884 61.137 43.553 61.1014 43.6084C61.0658 43.6637 61.0146 43.7074 60.9544 43.734C60.2052 44.0516 57.6552 45.2294 56.5946 46.7002C53.8874 50.468 51.8216 55.8577 47.1966 55.8577H27.9134C26.2853 55.8552 24.6736 55.532 23.1705 54.9064C21.6674 54.2809 20.3022 53.3652 19.1531 52.2118C18.004 51.0584 17.0935 49.6899 16.4735 48.1844C15.8536 46.679 15.5364 45.0661 15.54 43.438V43.216C15.54 43.0372 15.688 42.8892 15.873 42.8892H26.6184C26.8343 42.8892 26.9884 43.0834 26.973 43.2962C26.8928 43.993 27.0254 44.7114 27.3584 45.362C27.9936 46.657 29.3194 47.4648 30.747 47.4648H36.0688V43.3116H30.8025C30.7408 43.3109 30.6804 43.2934 30.6279 43.261C30.5754 43.2286 30.5327 43.1825 30.5045 43.1276C30.4763 43.0727 30.4635 43.0112 30.4677 42.9496C30.4719 42.888 30.4927 42.8288 30.5281 42.7782L30.7223 42.5007C31.2157 41.7884 31.9279 40.6938 32.6371 39.442C33.1181 38.5972 33.5868 37.6968 33.9629 36.7903C34.0369 36.63 34.0955 36.4604 34.1633 36.297C34.2651 36.0072 34.3699 35.7358 34.4439 35.4676C34.5165 35.2401 34.5834 35.0109 34.6443 34.78C34.8201 34.0092 34.8941 33.1952 34.8941 32.3534C34.8941 32.0204 34.8818 31.672 34.8509 31.3452C34.8355 30.9844 34.7892 30.6206 34.7461 30.2598C34.7116 29.9371 34.6622 29.616 34.5981 29.2978C34.5151 28.8133 34.4143 28.332 34.2959 27.8548L34.2528 27.6698C34.1603 27.3368 34.0801 27.0223 33.9753 26.6924C33.6817 25.6793 33.3442 24.6793 32.9639 23.6954C32.8314 23.3253 32.6854 22.9602 32.5261 22.6008C32.3041 22.052 32.0759 21.5556 31.8693 21.09C31.7665 20.8905 31.6699 20.688 31.5795 20.4826C31.4792 20.261 31.3733 20.042 31.2619 19.8258C31.1879 19.6624 31.0985 19.5052 31.0399 19.3572L30.3893 18.1608C30.2999 17.9974 30.4479 17.797 30.6267 17.8494L34.6968 18.9502H34.7276L35.261 19.1043L35.853 19.2708L36.0688 19.3294V16.9152C36.0688 15.7466 37 14.8 38.1624 14.8C38.4369 14.7993 38.7087 14.8541 38.9614 14.9611C39.2142 15.0681 39.4427 15.2252 39.6332 15.4228C40.0268 15.8199 40.2484 16.356 40.2498 16.9152V20.5042L40.6846 20.6244C40.7154 20.6398 40.7524 20.6552 40.7802 20.6768C40.885 20.7508 41.0392 20.868 41.2334 21.016C41.3876 21.1332 41.551 21.2812 41.7422 21.4384C42.351 21.9345 42.9414 22.4528 43.512 22.9924C44.1718 23.606 44.9118 24.3244 45.621 25.123C45.8214 25.3512 46.0126 25.5732 46.213 25.8198C46.4042 26.0634 46.62 26.3008 46.7988 26.5352C47.0424 26.8558 47.2922 27.1888 47.5234 27.5342C47.6252 27.6976 47.7516 27.8672 47.8472 28.0306C48.1432 28.4684 48.396 28.9186 48.6396 29.3718C48.7444 29.5784 48.8462 29.8066 48.9356 30.0286C49.21 30.636 49.4258 31.2496 49.5584 31.8724C49.6023 32.0046 49.6322 32.141 49.6478 32.2794V32.3102C49.691 32.486 49.7064 32.6802 49.7218 32.8776C49.8086 33.7889 49.6972 34.7083 49.395 35.5724C49.2994 35.8314 49.21 36.0966 49.0928 36.3556C48.8616 36.8797 48.5964 37.4132 48.2788 37.9034C48.174 38.0884 48.0476 38.2796 47.9304 38.4646C47.7978 38.6588 47.656 38.8438 47.5388 39.0196C47.3693 39.2531 47.1914 39.4804 47.0054 39.701C46.842 39.923 46.6786 40.145 46.4936 40.3454C46.2438 40.6476 46.0002 40.9312 45.7382 41.2026C45.5902 41.3814 45.4298 41.5664 45.2572 41.7267C45.0968 41.9118 44.9242 42.0752 44.7762 42.2232C44.5172 42.4822 44.3137 42.6764 44.1348 42.846L43.7124 43.2222C43.6536 43.2812 43.5737 43.3145 43.4904 43.3147H40.2498V47.4648H44.326C45.2356 47.4648 46.102 47.1442 46.805 46.546C47.0424 46.3394 48.0846 45.436 49.321 44.0732C49.3613 44.0268 49.4153 43.9944 49.4752 43.9807L60.7293 40.7216C60.7787 40.7073 60.8308 40.7046 60.8814 40.7138C60.932 40.723 60.9798 40.7438 61.021 40.7746C61.0622 40.8054 61.0958 40.8453 61.119 40.8912C61.1422 40.9371 61.1545 40.9877 61.1548 41.0392V43.4226Z" fill="#4A9DFF" stroke="black" stroke-width="2" mask="url(#path-3-inside-1_69_5)"/>
</svg>
