<svg width="75" height="78" viewBox="0 0 75 78" fill="none" xmlns="http://www.w3.org/2000/svg">
<ellipse cx="38.5" cy="42" rx="36.5" ry="36" fill="black"/>
<circle cx="34" cy="36" r="28" fill="white"/>
<mask id="path-3-inside-1_69_6" fill="white">
<path fill-rule="evenodd" clip-rule="evenodd" d="M36.4682 73.4901C56.609 73.4901 72.9364 57.1627 72.9364 37.0219C72.9364 16.8811 56.609 0.553711 36.4682 0.553711C16.3274 0.553711 0 16.8811 0 37.0219C0 57.1627 16.3274 73.4901 36.4682 73.4901ZM43.2614 19.2129C46.656 19.7869 49.9021 20.7963 52.9304 22.1621C52.9569 22.1726 52.9786 22.1923 52.9918 22.2175C58.3577 29.9804 61.0061 38.7409 60.0164 48.8235C60.0141 48.8448 60.0072 48.8654 59.9963 48.8838C59.9854 48.9022 59.9706 48.9181 59.9531 48.9304C56.3539 51.5526 52.3373 53.5475 48.0732 54.8308C48.0431 54.8398 48.011 54.8393 47.9813 54.8293C47.9515 54.8194 47.9255 54.8006 47.9069 54.7753C47.0103 53.5462 46.1948 52.2517 45.4822 50.8919C45.4725 50.8732 45.4669 50.8526 45.4658 50.8315C45.4647 50.8104 45.4681 50.7893 45.4758 50.7696C45.4834 50.75 45.4952 50.7322 45.5103 50.7174C45.5255 50.7027 45.5435 50.6913 45.5634 50.6841C46.8559 50.2051 48.087 49.6291 49.2707 48.9482C49.2918 48.9357 49.3094 48.9181 49.3221 48.8971C49.3347 48.8761 49.3419 48.8522 49.3431 48.8277C49.3443 48.8032 49.3394 48.7788 49.3288 48.7566C49.3182 48.7345 49.3023 48.7153 49.2825 48.7008C49.0312 48.5167 48.7837 48.3247 48.5462 48.1308C48.5244 48.1134 48.4982 48.1026 48.4706 48.0994C48.4429 48.0963 48.415 48.101 48.3899 48.113C40.7081 51.6045 32.29 51.6045 24.5172 48.113C24.4922 48.1016 24.4645 48.0975 24.4373 48.101C24.41 48.1045 24.3842 48.1155 24.3629 48.1327C24.1253 48.3247 23.8759 48.5167 23.6266 48.7008C23.6069 48.7156 23.5913 48.7351 23.5811 48.7574C23.5708 48.7797 23.5663 48.8043 23.5678 48.8288C23.5694 48.8533 23.577 48.8771 23.59 48.8979C23.6031 48.9188 23.621 48.936 23.6424 48.9482C24.8301 49.6235 26.069 50.2046 27.3477 50.6861C27.3675 50.6931 27.3855 50.7042 27.4006 50.7188C27.4157 50.7333 27.4275 50.751 27.4352 50.7705C27.4429 50.79 27.4463 50.8109 27.4452 50.8319C27.4441 50.8528 27.4385 50.8733 27.4288 50.8919C26.7299 52.2526 25.9182 53.5523 25.0022 54.7773C24.9829 54.8016 24.9567 54.8195 24.927 54.8287C24.8973 54.8379 24.8656 54.8379 24.8359 54.8288C20.5791 53.5419 16.5691 51.5479 12.9738 48.9304C12.9568 48.9174 12.9425 48.901 12.932 48.8823C12.9214 48.8636 12.9148 48.8429 12.9125 48.8215C12.0831 40.1007 13.7715 31.2689 19.9312 22.2135C19.9463 22.1897 19.9684 22.171 19.9945 22.1601C23.0248 20.7924 26.2709 19.7829 29.6635 19.2089C29.6941 19.2041 29.7255 19.2087 29.7534 19.2221C29.7814 19.2355 29.8045 19.2572 29.8199 19.2841C30.2718 20.0723 30.6795 20.8851 31.0411 21.7187C34.6413 21.1808 38.3014 21.1808 41.9016 21.7187C42.2262 20.9666 42.6894 20.0145 43.1051 19.2841C43.1205 19.2575 43.1439 19.2363 43.1719 19.2236C43.1999 19.2108 43.2312 19.2071 43.2614 19.2129ZM24.3213 38.8002C24.3213 41.3951 26.2511 43.511 28.5907 43.511C30.9679 43.511 32.8601 41.3971 32.8601 38.8002C32.8977 36.2212 30.9857 34.0895 28.5907 34.0895C26.2135 34.0895 24.3213 36.2034 24.3213 38.8002ZM40.1064 38.8002C40.1064 41.3951 42.0343 43.511 44.3758 43.511C46.7728 43.511 48.6452 41.3971 48.6452 38.8002C48.6828 36.2212 46.7708 34.0895 44.3758 34.0895C41.9966 34.0895 40.1064 36.2034 40.1064 38.8002Z"/>
</mask>
<path fill-rule="evenodd" clip-rule="evenodd" d="M36.4682 73.4901C56.609 73.4901 72.9364 57.1627 72.9364 37.0219C72.9364 16.8811 56.609 0.553711 36.4682 0.553711C16.3274 0.553711 0 16.8811 0 37.0219C0 57.1627 16.3274 73.4901 36.4682 73.4901ZM43.2614 19.2129C46.656 19.7869 49.9021 20.7963 52.9304 22.1621C52.9569 22.1726 52.9786 22.1923 52.9918 22.2175C58.3577 29.9804 61.0061 38.7409 60.0164 48.8235C60.0141 48.8448 60.0072 48.8654 59.9963 48.8838C59.9854 48.9022 59.9706 48.9181 59.9531 48.9304C56.3539 51.5526 52.3373 53.5475 48.0732 54.8308C48.0431 54.8398 48.011 54.8393 47.9813 54.8293C47.9515 54.8194 47.9255 54.8006 47.9069 54.7753C47.0103 53.5462 46.1948 52.2517 45.4822 50.8919C45.4725 50.8732 45.4669 50.8526 45.4658 50.8315C45.4647 50.8104 45.4681 50.7893 45.4758 50.7696C45.4834 50.75 45.4952 50.7322 45.5103 50.7174C45.5255 50.7027 45.5435 50.6913 45.5634 50.6841C46.8559 50.2051 48.087 49.6291 49.2707 48.9482C49.2918 48.9357 49.3094 48.9181 49.3221 48.8971C49.3347 48.8761 49.3419 48.8522 49.3431 48.8277C49.3443 48.8032 49.3394 48.7788 49.3288 48.7566C49.3182 48.7345 49.3023 48.7153 49.2825 48.7008C49.0312 48.5167 48.7837 48.3247 48.5462 48.1308C48.5244 48.1134 48.4982 48.1026 48.4706 48.0994C48.4429 48.0963 48.415 48.101 48.3899 48.113C40.7081 51.6045 32.29 51.6045 24.5172 48.113C24.4922 48.1016 24.4645 48.0975 24.4373 48.101C24.41 48.1045 24.3842 48.1155 24.3629 48.1327C24.1253 48.3247 23.8759 48.5167 23.6266 48.7008C23.6069 48.7156 23.5913 48.7351 23.5811 48.7574C23.5708 48.7797 23.5663 48.8043 23.5678 48.8288C23.5694 48.8533 23.577 48.8771 23.59 48.8979C23.6031 48.9188 23.621 48.936 23.6424 48.9482C24.8301 49.6235 26.069 50.2046 27.3477 50.6861C27.3675 50.6931 27.3855 50.7042 27.4006 50.7188C27.4157 50.7333 27.4275 50.751 27.4352 50.7705C27.4429 50.79 27.4463 50.8109 27.4452 50.8319C27.4441 50.8528 27.4385 50.8733 27.4288 50.8919C26.7299 52.2526 25.9182 53.5523 25.0022 54.7773C24.9829 54.8016 24.9567 54.8195 24.927 54.8287C24.8973 54.8379 24.8656 54.8379 24.8359 54.8288C20.5791 53.5419 16.5691 51.5479 12.9738 48.9304C12.9568 48.9174 12.9425 48.901 12.932 48.8823C12.9214 48.8636 12.9148 48.8429 12.9125 48.8215C12.0831 40.1007 13.7715 31.2689 19.9312 22.2135C19.9463 22.1897 19.9684 22.171 19.9945 22.1601C23.0248 20.7924 26.2709 19.7829 29.6635 19.2089C29.6941 19.2041 29.7255 19.2087 29.7534 19.2221C29.7814 19.2355 29.8045 19.2572 29.8199 19.2841C30.2718 20.0723 30.6795 20.8851 31.0411 21.7187C34.6413 21.1808 38.3014 21.1808 41.9016 21.7187C42.2262 20.9666 42.6894 20.0145 43.1051 19.2841C43.1205 19.2575 43.1439 19.2363 43.1719 19.2236C43.1999 19.2108 43.2312 19.2071 43.2614 19.2129ZM24.3213 38.8002C24.3213 41.3951 26.2511 43.511 28.5907 43.511C30.9679 43.511 32.8601 41.3971 32.8601 38.8002C32.8977 36.2212 30.9857 34.0895 28.5907 34.0895C26.2135 34.0895 24.3213 36.2034 24.3213 38.8002ZM40.1064 38.8002C40.1064 41.3951 42.0343 43.511 44.3758 43.511C46.7728 43.511 48.6452 41.3971 48.6452 38.8002C48.6828 36.2212 46.7708 34.0895 44.3758 34.0895C41.9966 34.0895 40.1064 36.2034 40.1064 38.8002Z" fill="#AA83FF"/>
<path d="M52.9304 22.1621L52.5193 23.0736L52.5396 23.0828L52.5604 23.0911L52.9304 22.1621ZM43.2614 19.2129L43.073 20.195L43.0838 20.197L43.0947 20.1989L43.2614 19.2129ZM52.9918 22.2175L52.1051 22.6798L52.1338 22.7349L52.1692 22.7861L52.9918 22.2175ZM60.0164 48.8235L61.0105 48.9327L61.0116 48.9212L60.0164 48.8235ZM59.9963 48.8838L60.8565 49.3937L60.8566 49.3936L59.9963 48.8838ZM59.9531 48.9304L59.3802 48.1108L59.3721 48.1164L59.3642 48.1222L59.9531 48.9304ZM48.0732 54.8308L48.3599 55.7888L48.3614 55.7883L48.0732 54.8308ZM47.9813 54.8293L48.2975 53.8807L48.2975 53.8806L47.9813 54.8293ZM47.9069 54.7753L47.099 55.3647L47.1027 55.3697L47.9069 54.7753ZM45.4822 50.8919L44.5943 51.3519L44.5965 51.3561L45.4822 50.8919ZM45.4658 50.8315L44.4672 50.8842L44.4672 50.8844L45.4658 50.8315ZM45.4758 50.7696L44.5443 50.4058L44.5442 50.406L45.4758 50.7696ZM45.5103 50.7174L44.8119 50.0018L44.8118 50.0019L45.5103 50.7174ZM45.5634 50.6841L45.9047 51.6241L45.9109 51.6218L45.5634 50.6841ZM49.2707 48.9482L49.7693 49.8151L49.7813 49.808L49.2707 48.9482ZM49.3221 48.8971L48.4651 48.3818L48.465 48.3818L49.3221 48.8971ZM49.3431 48.8277L48.3443 48.7797L48.3443 48.7798L49.3431 48.8277ZM49.3288 48.7566L50.2312 48.3258L50.2312 48.3257L49.3288 48.7566ZM49.2825 48.7008L48.6917 49.5076L48.6918 49.5077L49.2825 48.7008ZM48.5462 48.1308L49.1788 47.3562L49.1688 47.3482L48.5462 48.1308ZM48.4706 48.0994L48.5838 47.1059H48.5838L48.4706 48.0994ZM48.3899 48.113L48.8036 49.0233L48.8122 49.0195L48.8206 49.0154L48.3899 48.113ZM24.5172 48.113L24.1056 49.0243L24.1075 49.0251L24.5172 48.113ZM24.3629 48.1327L23.7345 47.3548L23.7342 47.355L24.3629 48.1327ZM23.6266 48.7008L23.0327 47.8962L23.0241 47.9026L23.6266 48.7008ZM23.5811 48.7574L22.6722 48.3403L22.6722 48.3404L23.5811 48.7574ZM23.6424 48.9482L23.1467 49.8167L23.1482 49.8176L23.6424 48.9482ZM27.3477 50.6861L26.9953 51.6219L27.0051 51.6256L27.015 51.6291L27.3477 50.6861ZM27.4006 50.7188L26.7065 51.4386L26.7066 51.4387L27.4006 50.7188ZM27.4352 50.7705L28.3656 50.4038L28.3655 50.4037L27.4352 50.7705ZM27.4452 50.8319L28.4438 50.8844V50.8844L27.4452 50.8319ZM27.4288 50.8919L26.5422 50.4295L26.5393 50.435L27.4288 50.8919ZM25.0022 54.7773L25.7848 55.3998L25.7941 55.3881L25.8031 55.3762L25.0022 54.7773ZM24.927 54.8287L25.2227 55.784L25.2227 55.784L24.927 54.8287ZM24.8359 54.8288L25.1302 53.8731L25.1253 53.8716L24.8359 54.8288ZM12.9738 48.9304L12.3671 49.7253L12.3761 49.7322L12.3853 49.7388L12.9738 48.9304ZM12.9125 48.8215L11.9169 48.9162L11.9183 48.929L12.9125 48.8215ZM19.9312 22.2135L20.758 22.776L20.7668 22.7631L20.7751 22.75L19.9312 22.2135ZM19.9945 22.1601L20.3813 23.0822L20.3937 23.0771L20.4059 23.0715L19.9945 22.1601ZM29.6635 19.2089L29.5068 18.2212L29.4967 18.2229L29.6635 19.2089ZM29.7534 19.2221L30.1869 18.3209L30.1868 18.3209L29.7534 19.2221ZM29.8199 19.2841L28.9505 19.7783L28.9524 19.7816L29.8199 19.2841ZM31.0411 21.7187L30.1237 22.1166L30.4293 22.8212L31.1889 22.7077L31.0411 21.7187ZM41.9016 21.7187L41.7539 22.7077L42.5149 22.8214L42.8198 22.1149L41.9016 21.7187ZM43.1051 19.2841L42.2402 18.782L42.236 18.7895L43.1051 19.2841ZM32.8601 38.8002L31.8602 38.7857L31.8601 38.7929V38.8002H32.8601ZM48.6452 38.8002L47.6453 38.7857L47.6452 38.7929V38.8002H48.6452ZM71.9364 37.0219C71.9364 56.6104 56.0567 72.4901 36.4682 72.4901V74.4901C57.1613 74.4901 73.9364 57.715 73.9364 37.0219H71.9364ZM36.4682 1.55371C56.0567 1.55371 71.9364 17.4334 71.9364 37.0219H73.9364C73.9364 16.3288 57.1613 -0.446289 36.4682 -0.446289V1.55371ZM1 37.0219C1 17.4334 16.8796 1.55371 36.4682 1.55371V-0.446289C15.7751 -0.446289 -1 16.3288 -1 37.0219H1ZM36.4682 72.4901C16.8796 72.4901 1 56.6104 1 37.0219H-1C-1 57.715 15.7751 74.4901 36.4682 74.4901V72.4901ZM53.3415 21.2505C50.2375 19.8506 46.9094 18.8155 43.4282 18.2269L43.0947 20.1989C46.4025 20.7582 49.5666 21.742 52.5193 23.0736L53.3415 21.2505ZM53.8785 21.7552C53.7546 21.5175 53.5494 21.3322 53.3005 21.233L52.5604 23.0911C52.3643 23.013 52.2027 22.867 52.1051 22.6798L53.8785 21.7552ZM61.0116 48.9212C62.0262 38.5843 59.3038 29.5904 53.8144 21.6489L52.1692 22.7861C57.4116 30.3704 59.9859 38.8974 59.0212 48.7258L61.0116 48.9212ZM60.8566 49.3936C60.9401 49.2526 60.9925 49.0954 61.0104 48.9327L59.0224 48.7144C59.0356 48.5942 59.0743 48.4782 59.136 48.3741L60.8566 49.3936ZM60.5259 49.75C60.6604 49.6561 60.773 49.5345 60.8565 49.3937L59.136 48.3739C59.1977 48.27 59.2808 48.1802 59.3802 48.1108L60.5259 49.75ZM48.3614 55.7883C52.7334 54.4726 56.8516 52.4272 60.5419 49.7387L59.3642 48.1222C55.8561 50.678 51.9412 52.6224 47.785 53.8732L48.3614 55.7883ZM47.665 55.778C47.89 55.853 48.1326 55.8568 48.3599 55.7888L47.7864 53.8728C47.9536 53.8227 48.1321 53.8255 48.2975 53.8807L47.665 55.778ZM47.1027 55.3697C47.2437 55.5605 47.4401 55.7031 47.6651 55.778L48.2975 53.8806C48.4629 53.9358 48.6074 54.0407 48.7111 54.181L47.1027 55.3697ZM44.5965 51.3561C45.3335 52.7626 46.1755 54.0987 47.099 55.3647L48.7148 54.186C47.845 52.9937 47.0561 51.7408 46.368 50.4278L44.5965 51.3561ZM44.4672 50.8844C44.4758 51.0475 44.5192 51.2069 44.5943 51.3519L46.3702 50.432C46.4258 50.5394 46.458 50.6576 46.4644 50.7785L44.4672 50.8844ZM44.5442 50.406C44.4848 50.5581 44.4586 50.7212 44.4672 50.8842L46.4644 50.7787C46.4708 50.8996 46.4513 51.0205 46.4073 51.1333L44.5442 50.406ZM44.8118 50.0019C44.6948 50.1161 44.6037 50.2538 44.5443 50.4058L46.4072 51.1335C46.3632 51.2461 46.2957 51.3482 46.2089 51.4329L44.8118 50.0019ZM45.2221 49.7441C45.0687 49.7998 44.9288 49.8876 44.8119 50.0018L46.2088 51.433C46.1221 51.5177 46.0184 51.5828 45.9046 51.6241L45.2221 49.7441ZM48.772 48.0814C47.6374 48.7341 46.4569 49.2865 45.2159 49.7464L45.9109 51.6218C47.2549 51.1237 48.5366 50.5241 49.7693 49.815L48.772 48.0814ZM48.465 48.3818C48.5376 48.2611 48.6389 48.1603 48.76 48.0884L49.7813 49.808C49.9446 49.711 50.0813 49.5751 50.1791 49.4123L48.465 48.3818ZM48.3443 48.7798C48.351 48.6391 48.3925 48.5024 48.4651 48.3818L50.1791 49.4124C50.2769 49.2497 50.3329 49.0653 50.342 48.8756L48.3443 48.7798ZM48.4264 49.1875C48.3658 49.0605 48.3375 48.9204 48.3443 48.7797L50.342 48.8757C50.3511 48.686 50.313 48.497 50.2312 48.3258L48.4264 49.1875ZM48.6918 49.5077C48.5782 49.4245 48.487 49.3145 48.4264 49.1875L50.2312 48.3257C50.1494 48.1545 50.0265 48.0061 49.8732 47.8939L48.6918 49.5077ZM47.9137 48.9053C48.1642 49.1098 48.4255 49.3126 48.6917 49.5076L49.8733 47.894C49.6368 47.7208 49.4033 47.5396 49.1788 47.3562L47.9137 48.9053ZM48.3574 49.093C48.1988 49.0749 48.0485 49.0127 47.9236 48.9133L49.1688 47.3482C49.0003 47.2142 48.7976 47.1302 48.5838 47.1059L48.3574 49.093ZM48.8206 49.0154C48.6765 49.0842 48.516 49.1111 48.3574 49.093L48.5838 47.1059C48.3699 47.0815 48.1534 47.1177 47.9591 47.2105L48.8206 49.0154ZM24.1075 49.0251C32.1394 52.633 40.8574 52.635 48.8036 49.0233L47.9761 47.2026C40.5588 50.5739 32.4407 50.5759 24.927 47.2008L24.1075 49.0251ZM24.5644 49.0929C24.4081 49.1129 24.2492 49.0892 24.1056 49.0243L24.9289 47.2016C24.7352 47.1141 24.5209 47.0821 24.3101 47.1091L24.5644 49.0929ZM24.9912 48.9107C24.8685 49.0098 24.7207 49.0728 24.5644 49.0929L24.3101 47.1091C24.0993 47.1361 23.9 47.2212 23.7345 47.3548L24.9912 48.9107ZM24.2204 49.5054C24.4805 49.3134 24.7416 49.1124 24.9915 48.9104L23.7342 47.355C23.5091 47.537 23.2714 47.7201 23.0327 47.8962L24.2204 49.5054ZM24.4899 49.1745C24.4312 49.3025 24.3415 49.414 24.229 49.499L23.0241 47.9026C22.8724 48.0172 22.7515 48.1676 22.6722 48.3403L24.4899 49.1745ZM24.5658 48.7649C24.5748 48.9056 24.5487 49.0463 24.4899 49.1744L22.6722 48.3404C22.5929 48.5132 22.5577 48.7029 22.5699 48.8927L24.5658 48.7649ZM24.4384 48.3684C24.513 48.488 24.5568 48.6242 24.5658 48.7649L22.5699 48.8927C22.582 49.0824 22.6411 49.2661 22.7417 49.4274L24.4384 48.3684ZM24.138 48.0797C24.2606 48.1496 24.3637 48.2488 24.4384 48.3684L22.7417 49.4274C22.8424 49.5887 22.9815 49.7225 23.1467 49.8167L24.138 48.0797ZM27.7001 49.7502C26.4704 49.2871 25.2789 48.7283 24.1366 48.0789L23.1482 49.8176C24.3814 50.5187 25.6677 51.122 26.9953 51.6219L27.7001 49.7502ZM28.0948 49.999C27.9765 49.8849 27.8352 49.7976 27.6804 49.743L27.015 51.6291C26.8998 51.5885 26.7945 51.5235 26.7065 51.4386L28.0948 49.999ZM28.3655 50.4037C28.3053 50.251 28.213 50.1129 28.0947 49.9988L26.7066 51.4387C26.6185 51.3537 26.5497 51.2509 26.5049 51.1373L28.3655 50.4037ZM28.4438 50.8844C28.4525 50.7204 28.4258 50.5565 28.3656 50.4038L26.5049 51.1372C26.4601 51.0235 26.4402 50.9015 26.4466 50.7794L28.4438 50.8844ZM28.3155 51.3543C28.3915 51.2087 28.4352 51.0484 28.4438 50.8844L26.4466 50.7793C26.453 50.6573 26.4856 50.538 26.5422 50.4295L28.3155 51.3543ZM25.8031 55.3762C26.7525 54.1063 27.5939 52.7592 28.3183 51.3488L26.5393 50.435C25.8659 51.746 25.0839 52.9982 24.2013 54.1785L25.8031 55.3762ZM25.2227 55.784C25.4445 55.7153 25.6404 55.5815 25.7848 55.3998L24.2195 54.1549C24.3254 54.0218 24.4688 53.9237 24.6313 53.8735L25.2227 55.784ZM24.5417 55.7845C24.7636 55.8529 25.001 55.8526 25.2227 55.784L24.6313 53.8734C24.7937 53.8232 24.9676 53.823 25.1302 53.8731L24.5417 55.7845ZM12.3853 49.7388C16.0712 52.4224 20.1823 54.4666 24.5465 55.786L25.1253 53.8716C20.9758 52.6171 17.067 50.6735 13.5624 48.122L12.3853 49.7388ZM12.0608 49.3733C12.138 49.5102 12.2422 49.63 12.3671 49.7253L13.5806 48.1355C13.6713 48.2048 13.747 48.2918 13.8031 48.3913L12.0608 49.3733ZM11.9183 48.929C11.9351 49.0852 11.9836 49.2364 12.0608 49.3733L13.8031 48.3913C13.8592 48.4908 13.8944 48.6006 13.9067 48.7141L11.9183 48.929ZM19.1043 21.6511C12.8055 30.9111 11.067 39.9781 11.917 48.9162L13.908 48.7269C13.0993 40.2232 14.7375 31.6267 20.758 22.776L19.1043 21.6511ZM19.6077 21.2379C19.3935 21.3278 19.2119 21.481 19.0872 21.6771L20.7751 22.75C20.6808 22.8983 20.5434 23.0143 20.3813 23.0822L19.6077 21.2379ZM29.4967 18.2229C26.0174 18.8116 22.6893 19.8467 19.5831 21.2486L20.4059 23.0715C23.3604 21.738 26.5245 20.7542 29.8303 20.1949L29.4967 18.2229ZM30.1868 18.3209C29.9757 18.2193 29.7384 18.1845 29.5069 18.2213L29.8201 20.1966C29.6498 20.2236 29.4753 20.198 29.32 20.1233L30.1868 18.3209ZM30.6892 18.79C30.5734 18.5862 30.3982 18.4225 30.1869 18.3209L29.3199 20.1233C29.1646 20.0485 29.0357 19.9282 28.9505 19.7783L30.6892 18.79ZM31.9585 21.3208C31.5822 20.4531 31.1578 19.6071 30.6874 18.7867L28.9524 19.7816C29.3859 20.5376 29.7769 21.3171 30.1237 22.1166L31.9585 21.3208ZM42.0494 20.7297C38.3512 20.1771 34.5915 20.1771 30.8933 20.7297L31.1889 22.7077C34.6911 22.1844 38.2516 22.1844 41.7539 22.7077L42.0494 20.7297ZM42.236 18.7895C41.799 19.5574 41.3198 20.5432 40.9835 21.3224L42.8198 22.1149C43.1327 21.3899 43.5799 20.4716 43.9742 19.7787L42.236 18.7895ZM42.7572 18.3136C42.5405 18.4124 42.3598 18.5761 42.2402 18.782L43.9699 19.7862C43.8812 19.9389 43.7473 20.0603 43.5865 20.1336L42.7572 18.3136ZM43.4499 18.2308C43.216 18.1859 42.974 18.2148 42.7572 18.3136L43.5865 20.1336C43.4258 20.2068 43.2464 20.2282 43.073 20.195L43.4499 18.2308ZM28.5907 42.511C26.892 42.511 25.3213 40.9358 25.3213 38.8002H23.3213C23.3213 41.8545 25.6103 44.511 28.5907 44.511V42.511ZM31.8601 38.8002C31.8601 40.9434 30.3219 42.511 28.5907 42.511V44.511C31.6138 44.511 33.8601 41.8508 33.8601 38.8002H31.8601ZM28.5907 35.0895C30.347 35.0895 31.8909 36.6803 31.8602 38.7857L33.86 38.8148C33.9045 35.7621 31.6244 33.0895 28.5907 33.0895V35.0895ZM25.3213 38.8002C25.3213 36.657 26.8595 35.0895 28.5907 35.0895V33.0895C25.5675 33.0895 23.3213 35.7497 23.3213 38.8002H25.3213ZM44.3758 42.511C42.6754 42.511 41.1064 40.9361 41.1064 38.8002H39.1064C39.1064 41.8542 41.3931 44.511 44.3758 44.511V42.511ZM47.6452 38.8002C47.6452 40.9466 46.1239 42.511 44.3758 42.511V44.511C47.4216 44.511 49.6452 41.8476 49.6452 38.8002H47.6452ZM44.3758 35.0895C46.1321 35.0895 47.676 36.6803 47.6453 38.7857L49.6451 38.8148C49.6896 35.7621 47.4095 33.0895 44.3758 33.0895V35.0895ZM41.1064 38.8002C41.1064 36.6567 42.6429 35.0895 44.3758 35.0895V33.0895C41.3504 33.0895 39.1064 35.75 39.1064 38.8002H41.1064Z" fill="black" mask="url(#path-3-inside-1_69_6)"/>
</svg>
