<svg width="75" height="78" viewBox="0 0 75 78" fill="none" xmlns="http://www.w3.org/2000/svg">
<ellipse cx="38.5" cy="42" rx="36.5" ry="36" fill="black"/>
<circle cx="37" cy="36" r="28" fill="white"/>
<path d="M16.147 31.7308H15.7132V31.7303C15.7089 33.9615 16.4666 36.1262 17.8589 37.8567C18.7866 39.0097 19.9579 39.9226 21.2757 40.5354C20.6785 40.5465 20.0806 40.4974 19.4476 40.4036L18.6583 40.2866L18.8973 41.048C19.9691 44.4626 22.8833 47.0497 26.4747 47.6348C23.6468 49.5591 20.253 50.6723 16.5961 50.6723C15.8621 50.6723 15.1803 50.64 14.4686 50.5598L14.1404 51.4761L15.7132 31.7298L16.1471 31.7307M16.147 31.7308L15.9648 32.0491C16.0501 32.098 16.1364 32.1455 16.2237 32.1918C16.2164 32.0385 16.2129 31.8848 16.2132 31.7308M16.147 31.7308L16.1471 31.7307M16.147 31.7308H16.2132M16.2132 31.7308V31.6152M16.2132 31.7308L16.1471 31.7307M16.2132 31.6152C16.282 31.6546 16.3516 31.6931 16.4219 31.7308C16.4221 31.7309 16.4224 31.7311 16.4226 31.7312C16.5186 31.7826 16.6158 31.8324 16.7141 31.8804C16.7134 31.8309 16.7131 31.7814 16.7132 31.7318V31.7308V31.6152H16.2132ZM16.2132 31.6152L16.1471 31.7307M19.3743 40.8982C19.4306 41.0776 19.4923 41.2546 19.5591 41.4289C19.4735 41.4177 19.3875 41.4056 19.301 41.3928L19.3743 40.8982ZM19.3743 40.8982C19.5598 40.9257 19.7427 40.9495 19.924 40.9693C19.8988 40.8961 19.8746 40.8225 19.8514 40.7485L19.3743 40.8982ZM58.5792 23.1333L58.781 23.5908C58.5359 23.6988 58.2878 23.8024 58.0369 23.9011C58.2238 23.6496 58.4046 23.3935 58.5792 23.1333ZM58.5792 23.1333L58.164 22.8547C58.0205 23.0687 57.8725 23.2798 57.7205 23.4877C58.0104 23.3762 58.2968 23.2578 58.5792 23.1333ZM57.3408 19.5158L57.5971 19.9452C57.4246 20.0481 57.2501 20.1486 57.0736 20.2464C57.1726 20.0078 57.2618 19.7641 57.3408 19.5158ZM57.3408 19.5158L56.8644 19.3641C56.8074 19.5432 56.7447 19.7199 56.6767 19.8938C56.9012 19.7721 57.1227 19.6461 57.3408 19.5158ZM17.4923 20.5234L17.9242 20.7754C17.8927 20.8293 17.8619 20.8835 17.8316 20.9381C17.7172 20.8011 17.6041 20.6629 17.4923 20.5234ZM17.4923 20.5234L17.1021 20.8361C17.1458 20.8906 17.1896 20.9448 17.2337 20.9989C17.3151 20.8377 17.4014 20.6792 17.4923 20.5234ZM14.4126 51.0567C14.7213 51.2571 15.0345 51.451 15.352 51.6382C15.0224 51.6191 14.693 51.5914 14.3566 51.5536L14.4126 51.0567ZM14.4126 51.0567C14.7804 51.0981 15.14 51.1271 15.5016 51.1456C15.226 50.9813 14.9537 50.8118 14.6848 50.6373L14.4126 51.0567ZM18.6137 32.0393C18.8433 32.2682 19.0844 32.4855 19.3363 32.6904C19.6517 32.7369 19.9718 32.767 20.295 32.7797C20.0351 32.6041 19.785 32.4155 19.5455 32.2147C19.2296 32.1733 18.9184 32.1144 18.6137 32.0393ZM54.4935 24.3988C54.7699 24.1877 55.0341 23.9619 55.2851 23.7226C54.9546 23.8012 54.6211 23.8699 54.285 23.9279C53.9927 24.1574 53.6856 24.3693 53.365 24.5621C53.7441 24.5209 54.1205 24.4661 54.4935 24.3988ZM35.5476 29.573C35.5721 29.7413 35.6008 29.9106 35.6336 30.0807C35.8054 30.0929 35.9775 30.1033 36.1497 30.1121C36.1149 29.9426 36.0845 29.7741 36.0583 29.6065C35.8879 29.5971 35.7176 29.5859 35.5476 29.573ZM51.9636 21.381C51.8997 21.3121 51.8348 21.2441 51.7689 21.1771C51.6807 21.1954 51.5923 21.2129 51.5037 21.2298L51.597 21.721L51.9636 21.381ZM54.5537 28.1321C54.5503 28.0407 54.5459 27.9495 54.5402 27.859L54.0412 27.8904L54.3369 28.2936C54.4096 28.2403 54.4818 28.1865 54.5537 28.1321ZM23.4561 40.733C23.0925 40.6581 22.7354 40.561 22.3866 40.4427L23.4561 40.733ZM0.5 37C0.5 16.8371 16.6261 0.5 36.5 0.5C56.3739 0.5 72.5 16.8371 72.5 37C72.5 57.1629 56.3739 73.5 36.5 73.5C16.6261 73.5 0.5 57.1629 0.5 37Z" fill="#00C2FF" stroke="black"/>
</svg>
