<svg width="76" height="77" viewBox="0 0 76 77" fill="none" xmlns="http://www.w3.org/2000/svg">
<ellipse cx="39.5" cy="41" rx="36.5" ry="36" fill="black"/>
<circle cx="37" cy="35" r="34" fill="white"/>
<mask id="path-3-inside-1_69_8" fill="white">
<path fill-rule="evenodd" clip-rule="evenodd" d="M31.9203 28.8296C33.3384 27.8814 35.0059 27.375 36.7118 27.3743C38.9996 27.3752 41.1935 28.2842 42.8116 29.9016C44.4296 31.519 45.3394 33.7126 45.3411 36.0004C45.3411 37.7063 44.8353 39.374 43.8876 40.7924C42.9399 42.2109 41.5929 43.3166 40.0169 43.9695C38.4408 44.6225 36.7066 44.7935 35.0334 44.461C33.3602 44.1284 31.8231 43.3071 30.6166 42.1011C29.4101 40.895 28.5883 39.3583 28.2551 37.6852C27.9219 36.0122 28.0923 34.2778 28.7447 32.7016C29.3971 31.1253 30.5022 29.7779 31.9203 28.8296ZM54.9315 17.7742C55.7775 18.6202 56.4406 19.631 56.8798 20.7438L56.8862 20.7455C58.0449 23.6691 57.9808 30.0348 57.9392 34.1615C57.9323 34.8444 57.9261 35.4659 57.9261 36.0004C57.9261 36.5348 57.9323 37.1564 57.9392 37.8395C57.9808 41.9684 58.0449 48.3413 56.8862 51.2553C56.4471 52.3682 55.784 53.379 54.938 54.225C54.092 55.0709 53.0812 55.7341 51.9684 56.1732C49.0476 57.3326 42.693 57.2682 38.5647 57.2263C37.8792 57.2194 37.2551 57.213 36.7183 57.213C36.1915 57.213 35.5805 57.2189 34.9097 57.2254C30.7804 57.2651 24.3881 57.3265 21.4666 56.1732C20.3537 55.7341 19.3429 55.0709 18.497 54.225C17.651 53.379 16.9879 52.3682 16.5487 51.2553C15.3901 48.3211 15.451 41.9188 15.4903 37.7931C15.4966 37.1278 15.5024 36.5216 15.5024 35.9988C15.5024 35.4743 15.4966 34.8659 15.4902 34.1979C15.4508 30.0702 15.3897 23.6669 16.5423 20.7438C16.9814 19.631 17.6445 18.6202 18.4905 17.7742C19.3365 16.9282 20.3472 16.2651 21.4601 15.826C24.381 14.6665 30.7382 14.731 34.8661 14.7728C35.5514 14.7798 36.1753 14.7861 36.7118 14.7861C37.2383 14.7861 37.8491 14.7803 38.5196 14.7738C42.6479 14.7341 49.0403 14.6727 51.9619 15.826C53.0748 16.2651 54.0856 16.9282 54.9315 17.7742ZM29.3444 47.0265C31.5252 48.4836 34.0891 49.2613 36.7118 49.2613C38.4539 49.2635 40.1792 48.9219 41.7891 48.2562C43.3989 47.5906 44.8616 46.6139 46.0935 45.382C47.3253 44.1502 48.302 42.6875 48.9677 41.0776C49.6333 39.4678 49.9749 37.7424 49.9728 36.0004C49.9728 33.3776 49.195 30.8138 47.7379 28.633C46.2808 26.4523 44.2097 24.7526 41.7866 23.7489C39.3634 22.7452 36.6971 22.4826 34.1247 22.9943C31.5524 23.5059 29.1895 24.7689 27.3349 26.6235C25.4803 28.4781 24.2174 30.8409 23.7057 33.4133C23.194 35.9857 23.4566 38.652 24.4603 41.0751C25.464 43.4983 27.1637 45.5693 29.3444 47.0265ZM48.7993 24.7576C49.3085 25.0975 49.9071 25.2788 50.5194 25.2784L50.5258 25.2849C50.9324 25.2847 51.335 25.2042 51.7104 25.0481C52.0858 24.892 52.4267 24.6632 52.7135 24.3751C53.0003 24.0869 53.2274 23.7449 53.3818 23.3688C53.5362 22.9926 53.6147 22.5897 53.613 22.1831C53.613 21.5709 53.4315 20.9724 53.0913 20.4633C52.7511 19.9543 52.2676 19.5575 51.7019 19.3233C51.1362 19.0891 50.5138 19.0279 49.9133 19.1474C49.3128 19.267 48.7613 19.562 48.3285 19.995C47.8956 20.4281 47.601 20.9797 47.4817 21.5803C47.3625 22.1808 47.424 22.8032 47.6585 23.3688C47.8931 23.9343 48.29 24.4177 48.7993 24.7576ZM58.2253 57.509C61.251 54.4913 62.1971 50.8187 62.4057 46.6738C62.6467 42.398 62.6467 29.6028 62.4057 25.3464C62.2084 21.2015 61.2446 17.5273 58.2253 14.5031C55.206 11.479 51.535 10.5313 47.3901 10.3227C43.1191 10.0817 30.3142 10.0817 26.0432 10.3227C21.9146 10.52 18.2452 11.4741 15.2081 14.4918C12.171 17.5095 11.2363 21.1821 11.0276 25.327C10.7867 29.5947 10.7867 42.4012 11.0276 46.6738C11.2249 50.8106 12.1775 54.4848 15.2081 57.509C18.2387 60.5331 21.8984 61.4808 26.0432 61.6894C30.3142 61.9304 43.1191 61.9304 47.3901 61.6894C51.5301 61.4921 55.1995 60.5267 58.2253 57.509ZM36.9365 72C56.8188 72 72.9365 55.8823 72.9365 36C72.9365 16.1177 56.8188 0 36.9365 0C17.0543 0 0.936523 16.1177 0.936523 36C0.936523 55.8823 17.0543 72 36.9365 72Z"/>
</mask>
<path fill-rule="evenodd" clip-rule="evenodd" d="M31.9203 28.8296C33.3384 27.8814 35.0059 27.375 36.7118 27.3743C38.9996 27.3752 41.1935 28.2842 42.8116 29.9016C44.4296 31.519 45.3394 33.7126 45.3411 36.0004C45.3411 37.7063 44.8353 39.374 43.8876 40.7924C42.9399 42.2109 41.5929 43.3166 40.0169 43.9695C38.4408 44.6225 36.7066 44.7935 35.0334 44.461C33.3602 44.1284 31.8231 43.3071 30.6166 42.1011C29.4101 40.895 28.5883 39.3583 28.2551 37.6852C27.9219 36.0122 28.0923 34.2778 28.7447 32.7016C29.3971 31.1253 30.5022 29.7779 31.9203 28.8296ZM54.9315 17.7742C55.7775 18.6202 56.4406 19.631 56.8798 20.7438L56.8862 20.7455C58.0449 23.6691 57.9808 30.0348 57.9392 34.1615C57.9323 34.8444 57.9261 35.4659 57.9261 36.0004C57.9261 36.5348 57.9323 37.1564 57.9392 37.8395C57.9808 41.9684 58.0449 48.3413 56.8862 51.2553C56.4471 52.3682 55.784 53.379 54.938 54.225C54.092 55.0709 53.0812 55.7341 51.9684 56.1732C49.0476 57.3326 42.693 57.2682 38.5647 57.2263C37.8792 57.2194 37.2551 57.213 36.7183 57.213C36.1915 57.213 35.5805 57.2189 34.9097 57.2254C30.7804 57.2651 24.3881 57.3265 21.4666 56.1732C20.3537 55.7341 19.3429 55.0709 18.497 54.225C17.651 53.379 16.9879 52.3682 16.5487 51.2553C15.3901 48.3211 15.451 41.9188 15.4903 37.7931C15.4966 37.1278 15.5024 36.5216 15.5024 35.9988C15.5024 35.4743 15.4966 34.8659 15.4902 34.1979C15.4508 30.0702 15.3897 23.6669 16.5423 20.7438C16.9814 19.631 17.6445 18.6202 18.4905 17.7742C19.3365 16.9282 20.3472 16.2651 21.4601 15.826C24.381 14.6665 30.7382 14.731 34.8661 14.7728C35.5514 14.7798 36.1753 14.7861 36.7118 14.7861C37.2383 14.7861 37.8491 14.7803 38.5196 14.7738C42.6479 14.7341 49.0403 14.6727 51.9619 15.826C53.0748 16.2651 54.0856 16.9282 54.9315 17.7742ZM29.3444 47.0265C31.5252 48.4836 34.0891 49.2613 36.7118 49.2613C38.4539 49.2635 40.1792 48.9219 41.7891 48.2562C43.3989 47.5906 44.8616 46.6139 46.0935 45.382C47.3253 44.1502 48.302 42.6875 48.9677 41.0776C49.6333 39.4678 49.9749 37.7424 49.9728 36.0004C49.9728 33.3776 49.195 30.8138 47.7379 28.633C46.2808 26.4523 44.2097 24.7526 41.7866 23.7489C39.3634 22.7452 36.6971 22.4826 34.1247 22.9943C31.5524 23.5059 29.1895 24.7689 27.3349 26.6235C25.4803 28.4781 24.2174 30.8409 23.7057 33.4133C23.194 35.9857 23.4566 38.652 24.4603 41.0751C25.464 43.4983 27.1637 45.5693 29.3444 47.0265ZM48.7993 24.7576C49.3085 25.0975 49.9071 25.2788 50.5194 25.2784L50.5258 25.2849C50.9324 25.2847 51.335 25.2042 51.7104 25.0481C52.0858 24.892 52.4267 24.6632 52.7135 24.3751C53.0003 24.0869 53.2274 23.7449 53.3818 23.3688C53.5362 22.9926 53.6147 22.5897 53.613 22.1831C53.613 21.5709 53.4315 20.9724 53.0913 20.4633C52.7511 19.9543 52.2676 19.5575 51.7019 19.3233C51.1362 19.0891 50.5138 19.0279 49.9133 19.1474C49.3128 19.267 48.7613 19.562 48.3285 19.995C47.8956 20.4281 47.601 20.9797 47.4817 21.5803C47.3625 22.1808 47.424 22.8032 47.6585 23.3688C47.8931 23.9343 48.29 24.4177 48.7993 24.7576ZM58.2253 57.509C61.251 54.4913 62.1971 50.8187 62.4057 46.6738C62.6467 42.398 62.6467 29.6028 62.4057 25.3464C62.2084 21.2015 61.2446 17.5273 58.2253 14.5031C55.206 11.479 51.535 10.5313 47.3901 10.3227C43.1191 10.0817 30.3142 10.0817 26.0432 10.3227C21.9146 10.52 18.2452 11.4741 15.2081 14.4918C12.171 17.5095 11.2363 21.1821 11.0276 25.327C10.7867 29.5947 10.7867 42.4012 11.0276 46.6738C11.2249 50.8106 12.1775 54.4848 15.2081 57.509C18.2387 60.5331 21.8984 61.4808 26.0432 61.6894C30.3142 61.9304 43.1191 61.9304 47.3901 61.6894C51.5301 61.4921 55.1995 60.5267 58.2253 57.509ZM36.9365 72C56.8188 72 72.9365 55.8823 72.9365 36C72.9365 16.1177 56.8188 0 36.9365 0C17.0543 0 0.936523 16.1177 0.936523 36C0.936523 55.8823 17.0543 72 36.9365 72Z" fill="#FF9900"/>
<path d="M36.7118 27.3743L36.7122 26.3743H36.7114L36.7118 27.3743ZM31.9203 28.8296L31.3645 27.9984L31.9203 28.8296ZM42.8116 29.9016L43.5185 29.1943L42.8116 29.9016ZM45.3411 36.0004H46.3411V35.9996L45.3411 36.0004ZM40.0169 43.9695L40.3996 44.8934L40.0169 43.9695ZM30.6166 42.1011L29.9097 42.8083L30.6166 42.1011ZM28.2551 37.6852L29.2359 37.4899L28.2551 37.6852ZM28.7447 32.7016L29.6687 33.084L28.7447 32.7016ZM56.8798 20.7438L55.9496 21.1109L56.1384 21.5895L56.6376 21.7141L56.8798 20.7438ZM56.8862 20.7455L57.8159 20.377L57.6267 19.8996L57.1284 19.7752L56.8862 20.7455ZM57.9392 34.1615L56.9393 34.1515L57.9392 34.1615ZM57.9392 37.8395L56.9393 37.8495L57.9392 37.8395ZM56.8862 51.2553L55.957 50.8858L55.956 50.8883L56.8862 51.2553ZM51.9684 56.1732L51.6013 55.243L51.5994 55.2437L51.9684 56.1732ZM38.5647 57.2263L38.5748 56.2264L38.5647 57.2263ZM34.9097 57.2254L34.9193 58.2253L34.9097 57.2254ZM21.4666 56.1732L21.8338 55.243L21.8336 55.243L21.4666 56.1732ZM16.5487 51.2553L17.4789 50.8883L17.4788 50.888L16.5487 51.2553ZM15.4903 37.7931L16.4903 37.8026L15.4903 37.7931ZM15.4902 34.1979L16.4902 34.1884L15.4902 34.1979ZM16.5423 20.7438L15.6121 20.3768L15.612 20.377L16.5423 20.7438ZM21.4601 15.826L21.8272 16.7562L21.8291 16.7554L21.4601 15.826ZM34.8661 14.7728L34.856 15.7728H34.856L34.8661 14.7728ZM38.5196 14.7738L38.51 13.7739L38.5196 14.7738ZM51.9619 15.826L51.5947 16.7561L51.5948 16.7562L51.9619 15.826ZM36.7118 49.2613L36.713 48.2613H36.7118V49.2613ZM29.3444 47.0265L29.9 46.195L29.3444 47.0265ZM41.7891 48.2562L42.1712 49.1803L41.7891 48.2562ZM46.0935 45.382L46.8006 46.0891L46.0935 45.382ZM48.9677 41.0776L49.8918 41.4598L48.9677 41.0776ZM49.9728 36.0004H48.9728V36.0016L49.9728 36.0004ZM47.7379 28.633L46.9064 29.1886L47.7379 28.633ZM41.7866 23.7489L42.1692 22.825L41.7866 23.7489ZM34.1247 22.9943L33.9296 22.0135L34.1247 22.9943ZM27.3349 26.6235L26.6278 25.9164L26.6278 25.9164L27.3349 26.6235ZM23.7057 33.4133L22.7249 33.2182L23.7057 33.4133ZM24.4603 41.0751L23.5364 41.4578L24.4603 41.0751ZM50.5194 25.2784L51.2266 24.5714L50.9334 24.2782L50.5188 24.2784L50.5194 25.2784ZM50.5258 25.2849L49.8186 25.9919L50.1118 26.2851L50.5264 26.2849L50.5258 25.2849ZM51.7104 25.0481L51.3264 24.1248L51.3264 24.1248L51.7104 25.0481ZM52.7135 24.3751L53.4223 25.0805V25.0805L52.7135 24.3751ZM53.3818 23.3688L54.3069 23.7484L54.3069 23.7484L53.3818 23.3688ZM53.613 22.1831H52.613L52.6131 22.1873L53.613 22.1831ZM48.3285 19.995L47.6212 19.2881L47.6212 19.2881L48.3285 19.995ZM47.4817 21.5803L46.5009 21.3855V21.3855L47.4817 21.5803ZM62.4057 46.6738L61.4073 46.6176L61.407 46.6236L62.4057 46.6738ZM58.2253 57.509L58.9314 58.217L58.2253 57.509ZM62.4057 25.3464L61.4068 25.3939L61.4073 25.4029L62.4057 25.3464ZM58.2253 14.5031L57.5176 15.2097L58.2253 14.5031ZM47.3901 10.3227L47.3338 11.3211L47.3398 11.3214L47.3901 10.3227ZM26.0432 10.3227L26.091 11.3216L26.0996 11.3211L26.0432 10.3227ZM15.2081 14.4918L14.5032 13.7824L15.2081 14.4918ZM11.0276 25.327L12.0261 25.3833L12.0264 25.3772L11.0276 25.327ZM11.0276 46.6738L12.0265 46.6262L12.0261 46.6175L11.0276 46.6738ZM15.2081 57.509L14.5017 58.2169L15.2081 57.509ZM26.0432 61.6894L26.0996 60.691L26.0935 60.6907L26.0432 61.6894ZM47.3901 61.6894L47.3425 60.6905L47.3338 60.691L47.3901 61.6894ZM36.7114 26.3743C34.8077 26.375 32.947 26.9402 31.3645 27.9984L32.4762 29.6609C33.7299 28.8226 35.204 28.3749 36.7122 28.3743L36.7114 26.3743ZM43.5185 29.1943C41.7131 27.3896 39.265 26.3753 36.7122 26.3743L36.7114 28.3743C38.7342 28.3751 40.674 29.1788 42.1046 30.6088L43.5185 29.1943ZM46.3411 35.9996C46.3392 33.4468 45.324 30.9991 43.5185 29.1943L42.1046 30.6088C43.5352 32.0389 44.3396 33.9783 44.3411 36.0011L46.3411 35.9996ZM44.7191 41.348C45.7767 39.7651 46.3411 37.9041 46.3411 36.0004H44.3411C44.3411 37.5086 43.8939 38.9829 43.0561 40.2369L44.7191 41.348ZM40.3996 44.8934C42.1584 44.1647 43.6615 42.9309 44.7191 41.348L43.0561 40.2369C42.2183 41.491 41.0274 42.4684 39.6341 43.0457L40.3996 44.8934ZM34.8384 45.4418C36.7056 45.8129 38.6409 45.6221 40.3996 44.8934L39.6341 43.0457C38.2408 43.623 36.7076 43.7742 35.2283 43.4801L34.8384 45.4418ZM29.9097 42.8083C31.256 44.1542 32.9712 45.0706 34.8384 45.4418L35.2283 43.4801C33.7491 43.1861 32.3903 42.4601 31.3236 41.3939L29.9097 42.8083ZM27.2744 37.8806C27.6462 39.7476 28.5633 41.4625 29.9097 42.8083L31.3236 41.3939C30.257 40.3276 29.5304 38.969 29.2359 37.4899L27.2744 37.8806ZM27.8207 32.3192C27.0927 34.0781 26.9025 36.0135 27.2744 37.8806L29.2359 37.4899C28.9413 36.0108 29.0919 34.4775 29.6687 33.084L27.8207 32.3192ZM31.3645 27.9984C29.7819 29.0565 28.5487 30.5602 27.8207 32.3192L29.6687 33.084C30.2454 31.6905 31.2224 30.4992 32.4762 29.6609L31.3645 27.9984ZM57.81 20.3768C57.3205 19.1365 56.5815 18.01 55.6386 17.0671L54.2244 18.4813C54.9735 19.2304 55.5607 20.1255 55.9496 21.1109L57.81 20.3768ZM57.1284 19.7752L57.1219 19.7736L56.6376 21.7141L56.6441 21.7157L57.1284 19.7752ZM58.9392 34.1716C58.9599 32.1129 58.9869 29.46 58.8615 26.9524C58.7381 24.4828 58.4626 22.009 57.8159 20.377L55.9566 21.1139C56.4685 22.4056 56.7403 24.5764 56.864 27.0523C56.9859 29.4901 56.9601 32.0834 56.9393 34.1515L58.9392 34.1716ZM58.9261 36.0004C58.9261 35.472 58.9323 34.8559 58.9392 34.1716L56.9393 34.1515C56.9324 34.8328 56.9261 35.4598 56.9261 36.0004H58.9261ZM58.9392 37.8294C58.9323 37.1449 58.9261 36.5287 58.9261 36.0004H56.9261C56.9261 36.5409 56.9324 37.168 56.9393 37.8495L58.9392 37.8294ZM57.8155 51.6248C58.4627 49.997 58.7381 47.5229 58.8616 45.0529C58.9869 42.5444 58.9599 39.8892 58.9392 37.8294L56.9393 37.8495C56.9601 39.9187 56.9859 42.5143 56.8641 44.9531C56.7403 47.4302 56.4684 49.5997 55.957 50.8858L57.8155 51.6248ZM55.6451 54.9321C56.5879 53.9892 57.327 52.8627 57.8164 51.6224L55.956 50.8883C55.5672 51.8737 54.98 52.7687 54.2309 53.5178L55.6451 54.9321ZM52.3354 57.1034C53.5757 56.614 54.7023 55.8749 55.6451 54.9321L54.2309 53.5178C53.4818 54.2669 52.5868 54.8541 51.6013 55.243L52.3354 57.1034ZM38.5545 58.2263C40.614 58.2472 43.2646 58.2743 45.7693 58.149C48.2361 58.0256 50.7066 57.75 52.3373 57.1026L51.5994 55.2437C50.3093 55.7558 48.1422 56.0278 45.6693 56.1515C43.2345 56.2733 40.6436 56.2474 38.5748 56.2264L38.5545 58.2263ZM36.7183 58.213C37.249 58.213 37.8675 58.2193 38.5545 58.2263L38.5748 56.2264C37.8909 56.2194 37.2612 56.213 36.7183 56.213V58.213ZM34.9193 58.2253C35.5915 58.2189 36.1973 58.213 36.7183 58.213V56.213C36.1857 56.213 35.5694 56.219 34.9001 56.2254L34.9193 58.2253ZM21.0994 57.1033C22.7299 57.747 25.2096 58.0218 27.6854 58.1454C30.1993 58.271 32.8593 58.2451 34.9193 58.2253L34.9001 56.2254C32.8309 56.2453 30.23 56.27 27.7851 56.1479C25.302 56.0239 23.1248 55.7527 21.8338 55.243L21.0994 57.1033ZM17.7899 54.9321C18.7327 55.8749 19.8592 56.614 21.0995 57.1034L21.8336 55.243C20.8482 54.8541 19.9532 54.2669 19.2041 53.5178L17.7899 54.9321ZM15.6185 51.6224C16.1079 52.8627 16.847 53.9892 17.7899 54.9321L19.2041 53.5178C18.455 52.7687 17.8678 51.8737 17.4789 50.8883L15.6185 51.6224ZM14.4903 37.7836C14.4708 39.8419 14.4451 42.5035 14.5716 45.0212C14.6961 47.5009 14.9723 49.9859 15.6186 51.6226L17.4788 50.888C16.9665 49.5905 16.6939 47.4073 16.569 44.9209C16.4461 42.4725 16.4706 39.8701 16.4903 37.8026L14.4903 37.7836ZM14.5024 35.9988C14.5024 36.5159 14.4967 37.1168 14.4903 37.7836L16.4903 37.8026C16.4966 37.1387 16.5024 36.5274 16.5024 35.9988H14.5024ZM14.4903 34.2074C14.4967 34.8769 14.5024 35.4801 14.5024 35.9988H16.5024C16.5024 35.4686 16.4965 34.855 16.4902 34.1884L14.4903 34.2074ZM15.612 20.377C14.9688 22.0082 14.6942 24.491 14.5705 26.9693C14.4449 29.4859 14.4706 32.1482 14.4903 34.2074L16.4902 34.1884C16.4704 32.1199 16.4459 29.5166 16.568 27.069C16.6921 24.5829 16.9632 22.4025 17.4726 21.1106L15.612 20.377ZM17.7834 17.0671C16.8405 18.01 16.1015 19.1365 15.6121 20.3768L17.4725 21.1109C17.8613 20.1255 18.4485 19.2304 19.1976 18.4813L17.7834 17.0671ZM21.0931 14.8958C19.8528 15.3852 18.7262 16.1243 17.7834 17.0671L19.1976 18.4813C19.9467 17.7322 20.8417 17.145 21.8272 16.7562L21.0931 14.8958ZM34.8763 13.7729C32.817 13.752 30.1658 13.7248 27.6605 13.8502C25.1932 13.9736 22.722 14.2492 21.0912 14.8965L21.8291 16.7554C23.1192 16.2433 25.287 15.9714 27.7604 15.8477C30.1959 15.7258 32.7873 15.7518 34.856 15.7728L34.8763 13.7729ZM36.7118 13.7861C36.1814 13.7861 35.5631 13.7799 34.8763 13.7729L34.856 15.7728C35.5398 15.7797 36.1692 15.7861 36.7118 15.7861V13.7861ZM38.51 13.7739C37.8381 13.7803 37.2325 13.7861 36.7118 13.7861V15.7861C37.2441 15.7861 37.8602 15.7802 38.5293 15.7738L38.51 13.7739ZM52.3291 14.8958C50.6985 14.2521 48.2188 13.9774 45.7432 13.8538C43.2293 13.7282 40.5696 13.7541 38.51 13.7739L38.5293 15.7738C40.598 15.7539 43.1986 15.7292 45.6434 15.8513C48.1264 15.9753 50.3037 16.2465 51.5947 16.7561L52.3291 14.8958ZM55.6386 17.0671C54.6958 16.1243 53.5693 15.3852 52.3289 14.8958L51.5948 16.7562C52.5803 17.145 53.4753 17.7322 54.2244 18.4813L55.6386 17.0671ZM36.7118 48.2613C34.2868 48.2613 31.9163 47.5422 29.9 46.195L28.7889 47.8579C31.1341 49.4249 33.8913 50.2613 36.7118 50.2613V48.2613ZM41.407 47.3321C39.9186 47.9475 38.3236 48.2633 36.713 48.2613L36.7106 50.2613C38.5842 50.2636 40.4398 49.8963 42.1712 49.1803L41.407 47.3321ZM45.3864 44.6749C44.2475 45.8137 42.8953 46.7167 41.407 47.3321L42.1712 49.1803C43.9026 48.4644 45.4757 47.414 46.8006 46.0891L45.3864 44.6749ZM48.0435 40.6955C47.4281 42.1838 46.5252 43.5361 45.3864 44.6749L46.8006 46.0891C48.1254 44.7643 49.1758 43.1912 49.8918 41.4598L48.0435 40.6955ZM48.9728 36.0016C48.9747 37.6121 48.659 39.2072 48.0435 40.6955L49.8918 41.4598C50.6077 39.7284 50.975 37.8727 50.9728 35.9992L48.9728 36.0016ZM46.9064 29.1886C48.2537 31.2049 48.9728 33.5754 48.9728 36.0004H50.9728C50.9728 33.1798 50.1364 30.4226 48.5694 28.0774L46.9064 29.1886ZM41.4039 24.6728C43.6443 25.6008 45.5592 27.1723 46.9064 29.1886L48.5694 28.0774C47.0023 25.7322 44.7751 23.9044 42.1692 22.825L41.4039 24.6728ZM34.3198 23.975C36.6982 23.502 39.1635 23.7448 41.4039 24.6728L42.1692 22.825C39.5634 21.7456 36.696 21.4632 33.9296 22.0135L34.3198 23.975ZM28.042 27.3306C29.7567 25.6159 31.9414 24.4481 34.3198 23.975L33.9296 22.0135C31.1633 22.5637 28.6222 23.922 26.6278 25.9164L28.042 27.3306ZM24.6865 33.6084C25.1596 31.23 26.3273 29.0453 28.042 27.3306L26.6278 25.9164C24.6334 27.9108 23.2752 30.4519 22.7249 33.2182L24.6865 33.6084ZM25.3842 40.6924C24.4562 38.4521 24.2134 35.9868 24.6865 33.6084L22.7249 33.2182C22.1746 35.9846 22.4571 38.852 23.5364 41.4578L25.3842 40.6924ZM29.9 46.195C27.8837 44.8477 26.3122 42.9328 25.3842 40.6924L23.5364 41.4578C24.6158 44.0637 26.4437 46.2909 28.7889 47.8579L29.9 46.195ZM50.5188 24.2784C50.1044 24.2787 49.6992 24.156 49.3545 23.9258L48.2441 25.5893C48.9178 26.039 49.7098 26.2789 50.5199 26.2784L50.5188 24.2784ZM51.233 24.5779L51.2266 24.5714L49.8122 25.9854L49.8186 25.9919L51.233 24.5779ZM51.3264 24.1248C51.0725 24.2303 50.8003 24.2848 50.5253 24.2849L50.5264 26.2849C51.0646 26.2846 51.5974 26.1781 52.0944 25.9714L51.3264 24.1248ZM52.0047 23.6696C51.8108 23.8645 51.5802 24.0192 51.3264 24.1248L52.0944 25.9714C52.5913 25.7647 53.0426 25.462 53.4223 25.0805L52.0047 23.6696ZM52.4567 22.9891C52.3523 23.2435 52.1987 23.4747 52.0047 23.6696L53.4223 25.0805C53.802 24.699 54.1026 24.2464 54.3069 23.7484L52.4567 22.9891ZM52.6131 22.1873C52.6142 22.4623 52.5611 22.7348 52.4567 22.9891L54.3069 23.7484C54.5113 23.2505 54.6153 22.7172 54.613 22.179L52.6131 22.1873ZM52.2598 21.0189C52.4901 21.3635 52.613 21.7687 52.613 22.1831H54.613C54.613 21.3731 54.3728 20.5812 53.9227 19.9077L52.2598 21.0189ZM51.3193 20.2472C51.7023 20.4058 52.0296 20.6744 52.2598 21.0189L53.9227 19.9077C53.4726 19.2342 52.8329 18.7093 52.0845 18.3994L51.3193 20.2472ZM50.1086 20.1282C50.515 20.0472 50.9364 20.0887 51.3193 20.2472L52.0845 18.3994C51.336 18.0895 50.5125 18.0085 49.718 18.1667L50.1086 20.1282ZM49.0358 20.7019C49.3287 20.4088 49.7021 20.2091 50.1086 20.1282L49.718 18.1667C48.9235 18.3249 48.1938 18.7151 47.6212 19.2881L49.0358 20.7019ZM48.4626 21.775C48.5433 21.3685 48.7428 20.9951 49.0358 20.7019L47.6212 19.2881C47.0485 19.861 46.6587 20.591 46.5009 21.3855L48.4626 21.775ZM48.5823 22.9857C48.4235 22.6029 48.3819 22.1816 48.4626 21.775L46.5009 21.3855C46.3431 22.1801 46.4245 23.0035 46.7348 23.7518L48.5823 22.9857ZM49.3545 23.9258C49.0097 23.6957 48.741 23.3686 48.5823 22.9857L46.7348 23.7518C47.0451 24.5001 47.5703 25.1396 48.2441 25.5893L49.3545 23.9258ZM61.407 46.6236C61.2046 50.6443 60.2975 54.03 57.5191 56.8009L58.9314 58.217C62.2045 54.9527 63.1896 50.993 63.4044 46.7241L61.407 46.6236ZM61.4073 25.4029C61.6461 29.6216 61.6461 42.3791 61.4073 46.6176L63.4041 46.7301C63.6472 42.4169 63.6472 29.584 63.4041 25.2898L61.4073 25.4029ZM57.5176 15.2097C60.2926 17.9891 61.2157 21.379 61.4068 25.3939L63.4046 25.2988C63.2011 21.024 62.1966 17.0654 58.9329 13.7966L57.5176 15.2097ZM47.3398 11.3214C51.3601 11.5238 54.7447 12.4323 57.5176 15.2097L58.9329 13.7966C55.6673 10.5257 51.7098 9.53884 47.4404 9.32395L47.3398 11.3214ZM26.0996 11.3211C30.333 11.0823 43.1003 11.0823 47.3338 11.3211L47.4464 9.32428C43.1379 9.0812 30.2954 9.0812 25.9869 9.32428L26.0996 11.3211ZM15.9129 15.2012C18.7055 12.4265 22.0915 11.5127 26.091 11.3215L25.9955 9.32383C21.7376 9.5273 17.7848 10.5218 14.5032 13.7824L15.9129 15.2012ZM12.0264 25.3772C12.2289 21.3543 13.1255 17.9708 15.9129 15.2012L14.5032 13.7824C11.2165 17.0481 10.2437 21.0099 10.0289 25.2767L12.0264 25.3772ZM12.0261 46.6175C11.7872 42.3824 11.7872 29.6135 12.0261 25.3833L10.0292 25.2706C9.78615 29.5759 9.78616 42.42 10.0292 46.7301L12.0261 46.6175ZM15.9144 56.8011C13.1303 54.0229 12.2177 50.635 12.0265 46.6262L10.0288 46.7215C10.2322 50.9862 11.2246 54.9468 14.5017 58.2169L15.9144 56.8011ZM26.0935 60.6907C22.0746 60.4884 18.6997 59.5804 15.9144 56.8011L14.5017 58.2169C17.7777 61.4858 21.7222 62.4732 25.993 62.6882L26.0935 60.6907ZM47.3338 60.691C43.1003 60.9298 30.333 60.9298 26.0996 60.691L25.9869 62.6878C30.2954 62.9309 43.1379 62.9309 47.4464 62.6878L47.3338 60.691ZM57.5191 56.8009C54.7375 59.5751 51.3517 60.4995 47.3425 60.6905L47.4377 62.6883C51.7085 62.4848 55.6615 61.4782 58.9314 58.217L57.5191 56.8009ZM71.9365 36C71.9365 55.33 56.2665 71 36.9365 71V73C57.3711 73 73.9365 56.4345 73.9365 36H71.9365ZM36.9365 1C56.2665 1 71.9365 16.67 71.9365 36H73.9365C73.9365 15.5655 57.3711 -1 36.9365 -1V1ZM1.93652 36C1.93652 16.67 17.6066 1 36.9365 1V-1C16.502 -1 -0.0634766 15.5655 -0.0634766 36H1.93652ZM36.9365 71C17.6066 71 1.93652 55.33 1.93652 36H-0.0634766C-0.0634766 56.4345 16.502 73 36.9365 73V71Z" fill="black" mask="url(#path-3-inside-1_69_8)"/>
</svg>
